<?xml version="1.0" standalone="no"?>
<!DOCTYPE svg PUBLIC "-//W3C//DTD SVG 20010904//EN"
 "http://www.w3.org/TR/2001/REC-SVG-20010904/DTD/svg10.dtd">
<svg version="1.0" xmlns="http://www.w3.org/2000/svg"
 width="460.000000pt" height="460.000000pt" viewBox="0 0 460.000000 460.000000"
 preserveAspectRatio="xMidYMid meet">

<g transform="translate(0.000000,460.000000) scale(0.100000,-0.100000)"
fill="#000000" stroke="none">
<path d="M2305 4293 c-116 -30 -221 -66 -302 -104 -46 -22 -85 -39 -88 -39
-15 0 -233 -146 -255 -171 -22 -25 -126 -97 -133 -92 -6 3 -7 2 -4 -4 4 -6
-34 -37 -83 -69 -50 -32 -90 -61 -90 -65 0 -4 15 -3 33 3 44 13 101 27 103 25
2 -1 -13 -19 -32 -39 -19 -21 -34 -35 -34 -31 0 22 -88 -138 -102 -187 -4 -12
-70 -14 -484 -11 -392 2 -482 0 -491 -11 -6 -7 -39 -64 -73 -127 -129 -236
-209 -487 -252 -786 -19 -134 -16 -465 5 -604 67 -429 243 -828 509 -1146 84
-101 282 -291 380 -365 133 -100 470 -292 485 -276 3 3 11 -1 17 -8 15 -20
226 -91 354 -120 206 -47 323 -60 542 -59 187 1 379 19 398 37 3 4 -5 43 -17
89 -79 285 -89 332 -136 627 -26 165 -66 398 -82 475 -19 97 -33 278 -27 350
6 70 29 149 55 187 11 14 19 30 19 36 0 24 262 272 288 272 6 0 20 16 32 35
12 19 30 40 41 45 10 6 19 15 19 20 0 20 52 121 75 146 29 31 31 35 10 28 -8
-4 -15 -10 -15 -16 0 -17 -73 -40 -108 -34 -42 6 -87 35 -76 46 5 5 41 22 80
38 l72 29 53 -28 c56 -30 91 -59 72 -59 -19 0 -33 -69 -33 -165 0 -49 -5 -107
-11 -128 -6 -22 -8 -41 -5 -44 3 -3 19 6 36 21 41 34 50 33 49 -6 -1 -51 -9
-63 -81 -116 -91 -69 -239 -222 -272 -283 l-28 -50 17 -57 c18 -60 64 -174 74
-182 3 -3 6 -9 6 -15 1 -18 49 -115 57 -115 4 0 5 -7 2 -15 -4 -8 -1 -15 5
-15 6 0 11 -9 11 -20 0 -10 8 -27 18 -37 34 -34 52 -72 98 -210 55 -162 132
-364 145 -378 5 -5 9 -16 9 -26 0 -9 16 -37 35 -62 19 -25 35 -49 35 -52 0 -8
63 -89 73 -93 4 -2 7 -10 7 -18 0 -8 7 -14 16 -14 18 0 14 8 -30 58 -17 19
-20 35 -18 95 3 75 29 241 42 267 5 8 49 28 98 44 126 40 178 34 332 -41 l114
-55 106 108 c132 137 298 371 383 540 327 650 325 1436 -4 2074 -27 52 -58
110 -69 128 l-21 34 -312 -2 c-354 -3 -350 -3 -343 8 3 5 150 6 327 4 272 -4
321 -3 314 9 -5 8 -26 40 -48 72 l-40 58 -186 -6 c-102 -3 -228 -8 -278 -10
-51 -3 -93 -3 -93 -1 0 3 5 17 10 32 6 15 15 52 20 83 16 95 46 253 59 309 10
40 10 56 1 67 -12 14 -203 145 -212 145 -3 0 -8 -26 -12 -57 -4 -32 -13 -94
-21 -138 -9 -44 -17 -96 -20 -115 -8 -54 -18 -65 -44 -49 -18 12 -21 23 -21
81 0 77 -17 102 -22 31 -3 -49 -20 -63 -26 -21 -6 41 -50 125 -78 147 -36 28
-40 21 -15 -25 11 -21 19 -39 17 -41 -2 -2 -23 9 -47 25 -53 36 -202 107 -278
134 -156 54 -240 68 -396 67 -99 -1 -171 -6 -210 -16z m-191 -1095 c7 -18 22
-59 32 -91 10 -32 23 -66 30 -75 10 -13 13 -10 19 27 6 39 8 41 22 24 8 -10
11 -11 7 -3 -5 12 -4 13 6 3 7 -7 13 -26 13 -43 0 -16 4 -30 9 -30 5 0 6 -5 3
-10 -3 -6 0 -13 9 -16 8 -3 12 -12 10 -19 -8 -20 41 -48 70 -41 14 3 40 0 58
-8 18 -8 52 -19 76 -25 23 -7 42 -16 42 -22 0 -6 5 -7 10 -4 6 3 14 -5 19 -18
6 -14 16 -27 23 -30 7 -3 -6 -3 -29 0 -34 4 -47 1 -72 -18 -37 -29 -39 -43 -7
-35 l25 6 -6 -68 c-5 -65 -4 -69 20 -85 14 -9 36 -19 50 -22 23 -6 26 -3 33
30 3 20 4 60 2 90 l-5 54 31 -16 c46 -22 86 -71 86 -104 0 -19 5 -29 15 -29
27 0 28 29 4 76 -18 34 -38 54 -76 76 -42 23 -52 34 -49 51 2 17 11 23 36 25
66 7 98 -6 116 -46 23 -49 22 -49 40 -24 8 12 21 19 29 16 17 -7 21 11 5 21
-5 3 -10 16 -10 28 1 20 2 20 11 4 6 -9 14 -15 20 -12 5 4 6 -2 2 -11 -4 -12
-3 -15 5 -10 7 4 12 1 12 -6 0 -8 20 -34 45 -58 l45 -44 0 37 c0 20 5 37 10
37 7 0 8 19 5 53 -4 28 -3 47 2 42 12 -15 63 -36 72 -30 5 2 6 -6 4 -19 -6
-27 33 -70 55 -61 7 2 11 1 8 -4 -3 -5 1 -11 9 -15 12 -4 15 -24 15 -86 0 -90
-8 -98 -58 -55 -39 33 -70 33 -78 0 -3 -14 -3 -32 0 -41 5 -13 0 -15 -32 -9
-46 7 -66 -10 -56 -49 6 -24 31 -50 80 -84 18 -12 18 -13 -1 -6 -46 15 -67 16
-83 1 -9 -8 -34 -19 -56 -23 -38 -7 -76 -34 -76 -54 0 -21 65 -50 111 -50 l47
0 -22 -53 c-31 -77 -86 -123 -227 -194 -187 -93 -280 -128 -375 -139 -57 -7
-45 -16 -198 144 -43 45 -84 82 -90 81 -7 0 -6 -2 2 -6 6 -2 12 -10 12 -16 0
-13 -54 -50 -88 -61 -12 -4 -22 -11 -22 -16 0 -4 -10 -11 -22 -14 -27 -7 -110
-81 -101 -90 11 -10 -37 -7 -59 5 -11 6 -21 9 -24 7 -2 -2 28 -21 66 -41 66
-35 133 -60 226 -86 59 -16 74 -38 86 -128 6 -43 16 -85 24 -94 8 -8 14 -19
14 -23 0 -10 84 -86 96 -86 3 0 26 -20 52 -44 26 -25 55 -52 65 -60 9 -9 17
-20 17 -26 0 -14 -119 -150 -131 -150 -5 0 -45 28 -88 63 -43 34 -97 75 -119
90 l-41 28 5 74 c5 86 -3 109 -62 168 -37 36 -180 127 -201 127 -16 0 -62 57
-69 85 -10 41 51 196 90 227 118 93 177 138 186 138 5 0 23 -14 40 -32 17 -17
32 -29 35 -26 3 2 -23 33 -56 69 -119 124 -142 166 -168 306 -28 146 -46 287
-46 352 0 47 4 56 27 74 41 31 127 58 146 47 10 -6 29 -14 45 -20 15 -5 27
-14 27 -20 0 -6 -4 -9 -9 -5 -6 3 -15 -4 -21 -15 -9 -16 -8 -25 2 -38 11 -14
11 -15 -6 -9 -18 7 -111 -17 -129 -32 -4 -4 -4 -23 0 -42 6 -32 7 -33 13 -9 3
14 11 25 17 25 6 0 15 3 19 8 14 14 24 7 24 -18 0 -16 -6 -25 -15 -25 -11 0
-15 -11 -15 -38 0 -44 29 -82 63 -82 21 0 22 2 17 90 -3 50 -2 90 2 90 3 0 22
-16 42 -35 l36 -34 -5 37 c-4 32 -2 35 9 20 7 -10 16 -15 19 -11 4 3 7 0 7 -7
0 -7 3 -11 6 -8 3 3 -9 39 -26 80 -21 49 -40 80 -60 93 -38 25 -41 33 -29 86
14 62 26 68 36 18 11 -56 29 -60 43 -10 6 23 15 41 20 41 6 0 10 8 10 18 0 10
7 27 15 38 8 10 15 27 15 37 0 28 19 20 34 -15z m-254 -98 c0 -10 7 -26 16
-34 12 -12 12 -16 2 -16 -10 0 -9 -3 2 -10 12 -8 11 -10 -5 -10 -12 0 -25 -4
-30 -9 -6 -4 -24 -13 -42 -19 l-31 -10 10 31 c6 18 17 39 24 48 8 8 14 22 14
31 0 8 3 17 6 21 11 11 34 -5 34 -23z m550 -13 c14 -23 27 -46 29 -52 2 -5 7
-12 11 -15 4 -3 14 -26 22 -51 l16 -47 -61 14 c-41 10 -64 11 -71 4 -5 -5 -18
-10 -29 -10 -16 0 -17 5 -11 48 4 26 8 55 9 65 1 9 7 23 13 29 7 7 12 19 12
28 0 9 3 20 7 23 14 15 29 5 53 -36z m-1893 -29 c-3 -8 -6 -5 -6 6 -1 11 2 17
5 13 3 -3 4 -12 1 -19z m2187 -161 c25 -34 17 -42 -28 -27 -27 9 -36 17 -36
34 0 32 38 27 64 -7z m723 -69 c33 -31 32 -126 -1 -202 -33 -75 -140 -176
-168 -159 -17 9 -6 37 28 75 30 34 35 46 32 76 -5 39 19 71 53 72 23 0 50 33
53 66 8 66 -42 71 -120 12 -30 -22 -59 -48 -63 -57 -5 -9 -7 -41 -6 -72 2 -47
0 -56 -14 -55 -10 1 -17 -8 -19 -26 -3 -24 -6 -27 -23 -18 -21 12 -19 46 6 85
7 11 20 46 29 77 17 59 30 73 118 123 53 30 65 31 95 3z m-896 -81 c-1 -4 -1
-14 -1 -22 0 -8 -9 -15 -20 -15 -23 0 -24 4 -9 31 10 19 31 23 30 6z m602
-202 c61 -26 76 -38 109 -85 21 -30 38 -58 38 -62 0 -16 -30 -7 -58 17 -17 14
-32 25 -34 25 -3 0 -21 14 -41 32 -20 18 -52 37 -73 43 -42 11 -78 53 -69 78
6 15 9 15 32 -1 14 -9 57 -31 96 -47z m-68 -41 c22 -8 55 -27 73 -44 18 -16
37 -30 42 -30 12 0 60 -48 60 -60 0 -6 -6 -10 -14 -10 -30 0 -79 -56 -111
-124 l-32 -71 -8 37 c-5 29 -2 48 18 89 l25 52 -28 24 c-31 25 -45 30 -34 11
6 -10 4 -10 -7 -2 -8 6 -21 14 -29 18 -8 3 -5 4 8 2 32 -6 28 0 -23 29 -49 29
-98 82 -90 95 7 12 100 2 150 -16z m1075 -154 c121 -13 153 -20 173 -38 10 -9
15 -22 12 -29 -2 -8 0 -11 5 -8 6 3 10 5 10 3 0 -2 9 -49 20 -106 15 -78 20
-144 20 -272 0 -92 -3 -175 -6 -184 -5 -12 -21 -16 -69 -16 -63 0 -63 0 -70
33 -4 17 -16 50 -28 72 -22 45 -96 145 -106 145 -4 0 -20 13 -37 28 -30 29
-185 123 -264 160 -25 11 -79 32 -120 45 -111 37 -298 147 -285 168 7 11 639
11 745 -1z m-2279 -62 c27 -29 46 -54 44 -56 -2 -2 -27 1 -55 8 l-52 12 -61
-42 c-169 -117 -277 -190 -282 -190 -3 0 -44 -22 -93 -49 -48 -28 -93 -51
-100 -53 -25 -5 -16 197 12 279 37 111 43 113 379 133 67 4 130 8 141 8 11 1
39 -19 67 -50z m-176 -147 c3 -5 2 -12 -3 -15 -5 -3 -9 1 -9 9 0 17 3 19 12 6z
m-495 -305 c0 -2 -8 -10 -17 -17 -16 -13 -17 -12 -4 4 13 16 21 21 21 13z
m460 -51 c0 -5 -5 -3 -10 5 -5 8 -10 20 -10 25 0 6 5 3 10 -5 5 -8 10 -19 10
-25z m1414 -51 c3 -8 2 -12 -4 -9 -6 3 -10 10 -10 16 0 14 7 11 14 -7z m-2286
-539 c-3 -3 -9 2 -12 12 -6 14 -5 15 5 6 7 -7 10 -15 7 -18z m1429 -22 c0 -9
-4 -10 -14 -2 -7 6 -13 12 -13 14 0 1 6 2 13 2 8 0 14 -6 14 -14z m-59 -188
c-3 -3 -9 2 -12 12 -6 14 -5 15 5 6 7 -7 10 -15 7 -18z"/>
<path d="M2221 2965 c13 -13 28 -25 33 -25 5 0 -1 11 -14 25 -13 14 -28 25
-33 25 -5 0 1 -11 14 -25z"/>
<path d="M2388 2854 c-35 -18 -36 -37 -2 -53 27 -12 64 -7 64 10 0 5 6 9 13 9
14 0 47 31 47 43 0 13 -95 6 -122 -9z"/>
<path d="M2106 2516 c-37 -53 -37 -54 -22 -90 15 -36 17 -37 58 -34 l43 3 3
57 c3 55 -17 118 -37 118 -5 0 -25 -24 -45 -54z"/>
<path d="M2033 2513 c-29 -33 -31 -38 -18 -62 15 -30 53 -67 60 -59 3 3 -8 20
-25 38 -34 36 -37 52 -14 70 14 13 38 50 31 50 -1 0 -17 -16 -34 -37z"/>
<path d="M2143 2213 c9 -2 25 -2 35 0 9 3 1 5 -18 5 -19 0 -27 -2 -17 -5z"/>
<path d="M948 4155 c-39 -27 -42 -49 -7 -60 23 -8 25 -43 4 -71 -15 -19 -15
-19 -30 0 -8 11 -15 35 -15 53 0 18 -3 33 -6 33 -4 0 -37 -25 -74 -55 -94 -77
-273 -264 -348 -364 -52 -69 -62 -89 -57 -110 15 -61 9 -61 538 -53 l177 2 12
28 c13 31 11 226 -2 269 -5 16 -22 60 -39 100 -16 39 -33 92 -36 117 -4 26
-12 44 -19 43 -6 -1 -13 12 -14 28 -3 28 -27 65 -41 65 -4 0 -23 -11 -43 -25z"/>
<path d="M3777 3945 c-18 -13 -18 -14 3 -25 26 -14 46 0 37 24 -8 19 -16 20
-40 1z"/>
<path d="M3807 3873 c-4 -3 -7 -11 -7 -17 0 -6 5 -5 12 2 6 6 9 14 7 17 -3 3
-9 2 -12 -2z"/>
<path d="M2650 1571 c0 -5 4 -12 9 -16 6 -3 13 -26 17 -50 3 -25 11 -45 16
-45 10 0 3 45 -13 87 -9 23 -29 40 -29 24z"/>
<path d="M2578 1435 c-9 -21 -8 -35 5 -73 47 -140 63 -165 52 -82 -5 30 -7 67
-6 82 1 28 -23 98 -34 98 -3 0 -11 -11 -17 -25z"/>
</g>
</svg>
